<?xml version="1.0" standalone="no"?>
<!DOCTYPE svg PUBLIC "-//W3C//DTD SVG 20010904//EN"
 "http://www.w3.org/TR/2001/REC-SVG-20010904/DTD/svg10.dtd">
<svg version="1.0" xmlns="http://www.w3.org/2000/svg"
 width="648.000000pt" height="272.000000pt" viewBox="0 0 648.000000 272.000000"
 preserveAspectRatio="xMidYMid meet">
<metadata>
Created by potrace 1.16, written by Peter Selinger 2001-2019
</metadata>
<g transform="translate(0.000000,272.000000) scale(0.100000,-0.100000)"
fill="#000000" stroke="none">
<path d="M1815 2264 c-158 -21 -336 -83 -402 -138 -34 -29 -40 -53 -23 -87 11
-19 12 -18 40 10 59 58 301 137 457 148 127 9 223 -25 223 -80 0 -67 -114
-171 -248 -226 -97 -40 -235 -69 -295 -62 -5 1 35 57 87 126 53 69 96 129 96
135 0 31 -46 -13 -135 -130 -31 -41 -69 -82 -83 -90 -38 -24 -52 -44 -50 -71
1 -15 -18 -53 -49 -99 -51 -76 -113 -191 -113 -210 0 -25 22 -5 46 43 34 67
124 207 133 207 4 0 15 -14 25 -30 26 -45 107 -123 159 -153 97 -57 228 -69
280 -26 12 10 17 18 10 19 -6 0 -15 -4 -18 -10 -11 -18 -85 -10 -133 15 -89
46 -198 150 -238 227 -16 30 -21 28 100 43 120 16 302 97 386 172 113 102 100
240 -25 272 -54 14 -103 13 -230 -5z"/>
<path d="M3293 2234 c-93 -46 -269 -248 -343 -394 -80 -157 -217 -282 -337
-306 -40 -8 -73 22 -73 66 0 90 127 220 215 220 28 0 34 -25 15 -61 -12 -21
-1 -26 18 -7 20 20 14 56 -13 74 -62 40 -215 -9 -279 -90 -54 -69 -108 -115
-169 -146 -33 -17 -55 -30 -48 -30 18 0 101 46 139 77 l34 27 -7 -36 c-15 -77
48 -127 141 -114 59 8 113 36 207 108 42 32 77 58 77 56 0 -2 -7 -25 -15 -52
-19 -62 -19 -136 -1 -162 13 -17 14 -15 14 28 -1 44 19 138 29 138 3 0 14 -11
24 -24 11 -14 45 -37 76 -51 46 -22 67 -26 115 -23 32 2 63 9 68 14 7 7 -2 9
-24 6 -24 -3 -50 4 -85 23 -48 26 -131 104 -131 122 0 5 21 29 48 55 78 76
141 98 162 57 23 -42 -16 -89 -105 -127 -29 -12 -29 -12 15 -7 147 19 242 195
105 195 -44 0 -93 -27 -157 -87 -51 -48 -58 -52 -41 -25 140 229 402 477 451
428 12 -11 11 -18 -2 -45 -23 -44 -109 -124 -192 -179 -39 -26 -79 -53 -90
-60 -10 -7 1 -3 26 9 58 28 143 86 202 138 143 127 92 266 -69 185z"/>
<path d="M4760 2154 c-85 -28 -102 -37 -86 -46 9 -5 16 -13 16 -18 0 -23 -187
-286 -255 -358 -78 -83 -189 -166 -237 -178 -57 -13 -42 47 34 139 41 49 44
72 11 84 -10 3 -25 15 -34 26 -17 20 -17 20 -12 -6 5 -24 -7 -39 -89 -122
-102 -102 -172 -145 -196 -121 -18 18 4 72 59 142 49 63 105 103 167 120 l47
12 -30 12 c-75 29 -197 -20 -278 -111 -51 -59 -102 -99 -127 -99 -24 0 -3 79
37 138 51 76 51 74 7 70 -49 -4 -80 -47 -89 -123 -7 -49 -12 -59 -61 -105 -55
-52 -80 -61 -91 -34 -8 22 22 114 52 158 29 43 31 56 9 56 -31 0 -70 -33 -139
-117 -64 -78 -106 -113 -136 -113 -34 0 21 162 77 230 31 36 15 48 -31 23 -34
-18 -179 -152 -172 -159 2 -2 14 7 27 21 34 36 45 31 17 -7 -101 -134 40 -203
158 -78 l30 32 5 -38 c4 -28 12 -42 31 -53 42 -23 94 -2 161 65 54 54 57 55
67 35 15 -28 38 -27 84 4 l37 26 -7 -46 c-5 -39 -2 -49 17 -70 14 -14 35 -25
49 -25 42 1 107 35 162 86 49 47 50 47 43 19 -18 -66 2 -105 51 -105 36 0 117
47 206 118 l84 68 -18 -54 c-14 -44 -16 -60 -7 -87 12 -37 26 -45 78 -45 56 1
109 30 206 116 49 43 84 69 78 57 -33 -60 -32 -144 1 -165 22 -14 91 -8 132
11 36 17 205 155 205 167 0 3 -17 -8 -37 -25 -133 -110 -226 -158 -258 -131
-22 18 -19 37 15 109 41 86 121 196 225 311 48 52 94 110 103 128 16 32 16 35
-3 48 -21 16 -54 12 -118 -13 -34 -14 -36 -17 -20 -28 15 -11 13 -18 -24 -81
-139 -233 -338 -438 -460 -474 -46 -14 -73 -3 -73 29 0 58 119 241 255 391 48
52 94 110 103 128 16 32 16 35 -3 48 -19 14 -29 16 -55 8z"/>
<path d="M2218 1834 c-36 -11 -68 -35 -135 -100 -49 -48 -79 -80 -69 -73 18
13 19 12 12 -6 -5 -11 -10 -39 -13 -61 -4 -33 -1 -46 16 -63 26 -26 65 -27
138 -1 32 11 66 20 76 20 10 0 16 4 13 9 -3 5 9 20 28 34 18 15 48 47 65 73
77 117 4 211 -131 168z m122 -54 c23 -23 24 -35 9 -79 -12 -35 -12 -35 -39
-19 -17 11 -26 10 -58 -7 -45 -24 -85 -90 -63 -104 11 -7 10 -11 -7 -20 -27
-15 -75 -14 -90 1 -29 29 -6 110 48 172 63 72 158 98 200 56z"/>
<path d="M2387 1360 c-73 -28 -139 -83 -313 -259 l-159 -160 -55 16 c-43 13
-96 17 -240 17 -168 -1 -194 -3 -284 -27 -127 -34 -213 -74 -270 -127 -76 -70
-83 -135 -23 -198 42 -43 109 -62 223 -62 179 0 319 65 528 244 64 56 94 75
110 72 11 -3 39 -8 61 -11 21 -4 52 -13 68 -22 l29 -15 -18 31 c-10 17 -37 41
-61 53 -24 13 -43 25 -43 28 0 9 281 283 330 322 88 70 207 115 271 102 22 -4
22 -3 4 5 -33 16 -107 11 -158 -9z m-602 -546 c-179 -166 -344 -243 -521 -244
-84 0 -119 8 -149 36 -77 72 31 170 245 222 77 19 166 36 245 45 17 2 80 4
140 5 l110 1 -70 -65z"/>
<path d="M2336 1210 c-107 -126 -213 -278 -245 -353 -55 -127 -36 -287 39
-336 l24 -16 -17 25 c-24 34 -22 140 3 223 37 121 182 383 281 508 12 15 19
35 17 45 -2 14 -28 -10 -102 -96z"/>
<path d="M3585 1226 c-23 -7 -50 -18 -60 -24 -18 -10 -18 -11 -2 -12 9 0 17
-6 17 -13 0 -46 -214 -336 -313 -425 -69 -62 -162 -122 -190 -122 -40 0 -23
56 42 138 43 54 47 77 14 89 -10 3 -25 15 -34 26 -17 20 -17 20 -12 -6 5 -23
-6 -39 -81 -116 -84 -85 -175 -149 -196 -136 -18 11 -10 60 16 100 61 92 133
153 203 171 l46 12 -30 12 c-83 33 -238 -40 -301 -141 -17 -27 -165 -139 -184
-139 -35 0 -30 17 25 98 65 95 73 123 50 158 -15 24 -22 26 -63 21 -42 -5 -53
-12 -108 -70 l-61 -65 5 64 c3 43 1 69 -8 79 -19 23 -33 18 -26 -9 7 -28 -27
-78 -100 -151 l-49 -47 49 38 c57 44 54 37 -22 -64 -60 -79 -60 -95 3 -90 25
3 42 19 108 108 90 121 131 166 169 186 65 34 64 3 -2 -79 -55 -67 -90 -132
-90 -164 0 -11 9 -28 20 -38 36 -33 103 -5 217 92 l52 45 -9 -34 c-6 -18 -10
-41 -10 -51 0 -26 45 -67 75 -67 37 0 101 35 156 87 l48 45 -6 -49 c-6 -55 11
-83 51 -83 39 0 137 57 218 125 l77 65 -14 -41 c-21 -58 -19 -112 3 -132 30
-27 99 -22 157 12 28 16 106 81 174 145 113 106 161 139 178 122 4 -3 -3 -19
-15 -34 -64 -79 -111 -150 -117 -175 -17 -66 23 -101 87 -74 44 19 122 90 181
166 67 85 52 77 -19 -11 -80 -98 -164 -156 -164 -115 0 7 25 49 55 92 75 108
76 175 2 175 -42 0 -59 -12 -194 -136 -156 -142 -248 -191 -283 -149 -31 37
79 228 224 389 130 143 159 195 120 210 -21 8 -32 7 -79 -8z"/>
<path d="M4395 1115 c-5 -2 -22 -6 -37 -9 -20 -5 -43 -29 -85 -91 -43 -63 -64
-85 -80 -85 -28 0 -79 -43 -69 -58 4 -7 15 -12 24 -12 11 0 -7 -24 -48 -67
-36 -37 -58 -61 -49 -55 15 11 16 7 12 -50 -6 -83 8 -103 70 -102 58 1 113 34
209 124 82 76 103 88 64 38 -47 -63 -46 -117 4 -138 52 -22 108 -1 214 80 l66
49 0 -48 c0 -62 27 -89 96 -97 91 -10 165 32 368 209 60 53 134 109 165 126
36 20 49 31 35 31 -31 0 -99 -47 -214 -151 -167 -150 -239 -198 -297 -199 -31
0 -63 34 -63 68 0 85 133 222 215 222 26 0 27 -2 21 -40 -5 -33 -4 -38 9 -34
9 4 15 18 15 35 0 93 -185 72 -285 -32 -22 -23 -59 -61 -82 -85 -50 -50 -137
-104 -172 -104 -22 0 -23 3 -19 45 6 50 47 140 84 185 14 15 20 31 15 34 -20
13 -65 -18 -191 -133 -138 -126 -210 -172 -239 -154 -38 24 -22 88 49 197 56
86 87 100 155 72 21 -9 40 -15 42 -13 7 8 -35 37 -71 50 l-38 13 81 86 c44 47
81 88 81 92 0 6 -37 7 -55 1z"/>
<path d="M4087 1012 c-9 -2 -29 -25 -44 -50 -15 -26 -36 -60 -47 -76 -11 -16
-21 -37 -21 -47 -2 -25 -120 -223 -182 -306 -106 -141 -228 -223 -332 -223
-67 0 -124 29 -158 79 -13 19 -23 28 -23 21 0 -7 19 -32 43 -55 55 -55 127
-74 219 -57 96 18 164 57 253 147 94 94 146 184 200 352 44 135 65 172 105
180 17 3 30 11 30 18 0 15 -18 23 -43 17z"/>
<path d="M5373 928 c-41 -31 -73 -72 -113 -143 -46 -84 -77 -124 -114 -146
-40 -24 -66 -24 -102 2 -19 14 -16 9 10 -16 38 -37 39 -37 103 -32 45 3 83 14
127 36 62 32 179 124 190 150 4 7 -12 -3 -34 -23 -47 -42 -143 -106 -160 -106
-6 0 -3 12 8 28 11 15 36 74 57 132 20 58 44 113 53 123 21 23 12 21 -25 -5z"/>
</g>
</svg>
