<?xml version="1.0"?>
<svg version="1.1" xmlns="http://www.w3.org/2000/svg" width="400" height="200" style=""><path fill="#f5f5f5" d="M16.87646484375,89.3564453125q0-1.44580078125,0.353759765625-2.107177734375t1.01513671875-0.9228515625t1.599609375-0.199951171875t2.199462890625,0.0615234375q3.19921875,0,6.4599609375,0.984375t5.87548828125,2.876220703125t4.21435546875,4.660400390625t1.599609375,6.36767578125q0,2.3994140625-0.692138671875,4.537353515625t-1.953369140625,3.9990234375t-2.953125,3.399169921875t-3.72216796875,2.67626953125q0.83056640625,0.83056640625,2.1533203125,2.937744140625t2.61474609375,4.4912109375t2.291748046875,4.629638671875t1.184326171875,3.3837890625l-0.369140625,0.5537109375q-0.83056640625,0.4921875-1.99951171875,0.52294921875q-0.5537109375,0-1.44580078125-0.138427734375t-1.13818359375-0.815185546875q-1.26123046875-3.53759765625-2.753173828125-7.29052734375t-3.676025390625-6.767578125l0-0.0615234375q-0.76904296875,0.3076171875-1.522705078125,0.599853515625t-1.522705078125,0.538330078125q0.24609375,3.41455078125,0.507568359375,6.721435546875t0.261474609375,6.690673828125q0,0.4306640625-0.415283203125,0.692138671875t-0.938232421875,0.415283203125t-1.061279296875,0.21533203125t-0.876708984375,0.0615234375q-0.3076171875,0-0.876708984375-0.0615234375t-1.092041015625-0.21533203125t-0.907470703125-0.446044921875t-0.384521484375-0.784423828125q0-3.41455078125-0.15380859375-6.813720703125t-0.33837890625-6.782958984375q-0.95361328125-0.615234375-0.95361328125-1.599609375q0-0.76904296875,0.73828125-1.0458984375q-0.369140625-6.49072265625-0.845947265625-12.95068359375t-0.476806640625-13.01220703125z M22.4443359375,88.40283203125q0.4306640625,6.67529296875,0.968994140625,13.19677734375t1.030517578125,13.19677734375q2.1533203125-0.615234375,4.014404296875-2.137939453125t3.214599609375-3.429931640625t2.107177734375-4.15283203125t0.753662109375-4.46044921875q0-2.4609375-0.984375-4.721923828125t-2.61474609375-3.952880859375q-1.6611328125-1.69189453125-3.814453125-2.6455078125q-1.9072265625-0.83056640625-3.9990234375-0.83056640625l-0.5537109375,0z M45.874614257812,120.6103515625q0-1.75341796875,0.446044921875-3.614501953125t1.4150390625-3.35302734375t2.445556640625-2.43017578125t3.568359375-0.938232421875q1.56884765625,0,3.306884765625,0.538330078125t3.183837890625,1.5380859375t2.353271484375,2.445556640625t0.907470703125,3.22998046875q0,2.1533203125-0.784423828125,4.09130859375t-2.199462890625,3.460693359375t-3.306884765625,2.3994140625t-4.106689453125,0.876708984375q-1.81494140625,0-3.16845703125-0.661376953125t-2.260986328125-1.768798828125t-1.353515625-2.61474609375t-0.446044921875-3.19921875z M50.396586914062,120.548828125q0,0.5537109375,0.169189453125,1.63037109375t0.507568359375,2.107177734375t0.876708984375,1.7841796875t1.307373046875,0.692138671875q1.63037109375-0.1845703125,2.691650390625-1.061279296875t1.72265625-2.137939453125t0.9228515625-2.73779296875t0.261474609375-2.79931640625q0-1.69189453125-0.661376953125-2.830078125t-2.168701171875-1.845703125q0,0.0615234375,0.0615234375,0.0615234375t0.0615234375-0.0615234375l-0.76904296875-0.1845703125q-0.3076171875-0.123046875-0.753662109375-0.27685546875t-0.876708984375-0.6767578125q-1.19970703125,0.4306640625-1.861083984375,1.107421875t-0.999755859375,1.645751953125t-0.415283203125,2.322509765625t-0.076904296875,3.2607421875z M69.181845703125,119.41064453125q0-2.21484375,0.569091796875-4.445068359375t1.768798828125-3.9990234375t3.060791015625-2.876220703125t4.383544921875-1.107421875q1.07666015625,0,2.36865234375,0.261474609375t2.384033203125,0.83056640625t1.845703125,1.4765625t0.753662109375,2.230224609375q0,0.83056640625-0.4306640625,1.107421875t-1.13818359375,0.27685546875l-0.21533203125-0.3076171875t-0.599853515625-0.784423828125t-0.815185546875-1.01513671875t-0.83056640625-0.907470703125q-1.26123046875-1.26123046875-2.36865234375-1.353515625l-0.24609375,0q-0.9228515625,0-1.72265625,0.5537109375q-0.89208984375,0.6767578125-1.584228515625,1.9072265625t-1.153564453125,2.61474609375t-0.722900390625,2.79931640625t-0.261474609375,2.337890625q0,1.26123046875,0.292236328125,2.876220703125t0.984375,3.060791015625t1.75341796875,2.43017578125t2.722412109375,0.984375q1.50732421875,0,2.73779296875-0.73828125t2.353271484375-1.645751953125t2.199462890625-1.63037109375t2.21484375-0.722900390625q0.4921875,0,0.999755859375,0.123046875t0.507568359375,0.64599609375l0,0.1845703125q-0.5537109375,1.44580078125-1.87646484375,2.55322265625t-2.968505859375,1.922607421875t-3.41455078125,1.215087890625t-3.153076171875,0.39990234375q-2.583984375,0-4.537353515625-0.845947265625t-3.245361328125-2.322509765625t-1.953369140625-3.552978515625t-0.661376953125-4.537353515625z M96.026674804688,132.51513671875l0.64599609375-0.76904296875q-0.123046875-5.16796875-0.27685546875-10.30517578125t-0.15380859375-10.212890625q0-6.30615234375,0.753662109375-12.197021484375t1.491943359375-12.073974609375q0.0615234375-0.369140625,0.353759765625-0.599853515625t0.722900390625-0.384521484375t0.876708984375-0.21533203125t0.815185546875-0.0615234375q0.4921875,0,1.23046875,0.1845703125t1.4765625,1.07666015625q0,0.3076171875,0.046142578125,0.538330078125t0.046142578125,0.538330078125q0,2.337890625-0.630615234375,5.01416015625t-0.845947265625,5.13720703125q-0.24609375,3.0146484375-0.33837890625,5.9677734375t-0.09228515625,5.99853515625l0.0615234375,2.70703125q0.615234375-0.76904296875,1.75341796875-1.96875t2.4609375-2.322509765625t2.6455078125-1.922607421875t2.3994140625-0.7998046875q1.63037109375,0,2.260986328125,0.9228515625t0.630615234375,2.43017578125q0,1.38427734375-0.599853515625,2.8916015625t-1.56884765625,2.937744140625t-2.199462890625,2.568603515625t-2.43017578125,1.69189453125q1.63037109375,2.0302734375,3.337646484375,3.8759765625t3.737548828125,3.47607421875l0,0.70751953125q-0.0615234375,0.3076171875-0.384521484375,0.46142578125t-0.70751953125,0.24609375t-0.753662109375,0.138427734375t-0.615234375,0.046142578125q-1.50732421875,0-2.906982421875-0.89208984375t-2.61474609375-2.18408203125t-2.291748046875-2.73779296875t-1.96875-2.5224609375q0.1845703125,3.53759765625,0.415283203125,7.059814453125t0.230712890625,7.059814453125q0,0.4306640625-0.384521484375,0.722900390625t-0.89208984375,0.446044921875t-1.030517578125,0.21533203125t-0.861328125,0.0615234375q-1.81494140625,0-2.568603515625-0.661376953125t-1.276611328125-2.291748046875z M102.33282714844,118.0263671875q0.76904296875,0,1.830322265625-0.661376953125t2.199462890625-1.645751953125t2.12255859375-2.076416015625t1.584228515625-2.076416015625t0.599853515625-1.584228515625t-0.83056640625-0.538330078125q-0.3076171875,0-1.26123046875,0.89208984375t-2.12255859375,2.18408203125t-2.337890625,2.79931640625t-1.7841796875,2.70703125z M120.9950390625,122.48681640625q0-1.13818359375,0.046142578125-3.337646484375t0.322998046875-4.475830078125t0.907470703125-4.1220703125t1.891845703125-2.36865234375q0.3076171875-0.123046875,0.999755859375-0.21533203125t1.38427734375-0.0615234375t1.23046875,0.24609375t0.538330078125,0.7998046875q0,0.123046875-0.123046875,0.33837890625t-0.64599609375,0.6767578125q-0.95361328125,2.6455078125-1.1689453125,5.26025390625t-0.21533203125,5.38330078125q0,1.63037109375,0.107666015625,3.2607421875t0.353759765625,3.29150390625q0.4921875-0.70751953125,0.999755859375-2.12255859375t1.07666015625-3.091552734375t1.1689453125-3.399169921875t1.353515625-3.1376953125t1.6611328125-2.337890625t2.045654296875-0.9228515625q1.26123046875,0,2.107177734375,1.584228515625t1.56884765625,3.66064453125t1.353515625,4.21435546875t1.522705078125,3.276123046875q0.4306640625-0.4306640625,0.692138671875-1.122802734375t0.415283203125-1.491943359375t0.1845703125-1.584228515625t0.03076171875-1.338134765625q0-1.38427734375-0.415283203125-2.999267578125t-0.876708984375-3.030029296875t-0.876708984375-2.384033203125t-0.415283203125-1.122802734375q0-0.24609375,0.261474609375-0.39990234375t0.599853515625-0.24609375t0.692138671875-0.123046875t0.538330078125-0.03076171875q1.13818359375,0,1.953369140625,1.26123046875t1.2919921875,2.92236328125t0.692138671875,3.368408203125t0.21533203125,2.660888671875q0,1.19970703125-0.1845703125,2.55322265625t-0.692138671875,2.507080078125t-1.491943359375,1.922607421875t-2.49169921875,0.76904296875q-1.81494140625,0-2.98388671875-1.01513671875t-1.891845703125-2.4609375t-1.13818359375-3.153076171875t-0.784423828125-3.091552734375q-0.70751953125,1.63037109375-1.2919921875,4.1220703125t-1.4765625,4.89111328125t-2.2763671875,4.09130859375t-3.59912109375,1.69189453125t-3.153076171875-1.092041015625t-1.491943359375-2.999267578125l0.0615234375,0.0615234375q-0.369140625-1.38427734375-0.476806640625-2.7685546875t-0.107666015625-2.7685546875z M152.76174316406,120.02587890625q0-2.091796875,0.569091796875-4.02978515625t1.707275390625-3.460693359375t2.845458984375-2.43017578125t3.952880859375-0.907470703125q1.38427734375,0,3.060791015625,0.415283203125t3.153076171875,1.23046875t2.4609375,2.076416015625t0.984375,2.8916015625q0,0.76904296875-0.261474609375,1.1689453125t-1.061279296875,0.39990234375l-0.33837890625-0.0615234375q0.89208984375,2.3994140625,1.5380859375,4.921875t1.26123046875,5.044921875q0.24609375,0.4921875,0.369140625,0.876708984375t0.123046875,0.753662109375q0,0.4921875-0.27685546875,0.815185546875t-0.722900390625,0.476806640625t-0.9228515625,0.21533203125t-0.845947265625,0.0615234375q-1.32275390625,0-1.984130859375-0.46142578125t-0.95361328125-1.26123046875t-0.353759765625-1.799560546875t-0.24609375-2.014892578125q-0.369140625,1.19970703125-0.968994140625,2.337890625t-1.4150390625,2.045654296875t-1.922607421875,1.44580078125t-2.49169921875,0.538330078125q-2.0302734375,0-3.41455078125-1.1689453125t-2.230224609375-2.876220703125t-1.23046875-3.645263671875t-0.384521484375-3.59912109375z M157.12990722656,119.59521484375q0,1.13818359375,0.15380859375,2.3994140625t0.507568359375,2.49169921875t0.907470703125,2.322509765625t1.38427734375,1.922607421875q1.50732421875-1.63037109375,2.230224609375-3.96826171875t1.2919921875-4.506591796875t1.2919921875-3.72216796875t2.230224609375-1.553466796875q0.95361328125,0,1.599609375,0.33837890625q-0.3076171875-0.76904296875-1.01513671875-1.491943359375t-1.584228515625-1.32275390625t-1.81494140625-0.984375t-1.768798828125-0.384521484375q-0.24609375,0-0.569091796875,0.076904296875t-0.507568359375,0.015380859375q-1.26123046875,0.369140625-2.076416015625,1.276611328125t-1.32275390625,2.137939453125t-0.722900390625,2.5224609375t-0.21533203125,2.43017578125z M179.42200195313,130.9462890625q0-0.89208984375,0.076904296875-1.87646484375t0.138427734375-1.845703125l0.1845703125-4.6142578125q0.3076171875-5.537109375,0.753662109375-10.8896484375t0.753662109375-10.828125q0.1845703125-3.0146484375,0.27685546875-5.921630859375t0.27685546875-5.921630859375q-0.123046875-0.24609375-0.123046875-0.33837890625q0-0.4306640625,0.322998046875-0.6767578125t0.753662109375-0.415283203125t0.907470703125-0.230712890625t0.722900390625-0.0615234375l0.70751953125,0q0.95361328125,0.123046875,1.38427734375,0.599853515625t0.5537109375,1.13818359375t0.0615234375,1.4150390625t-0.0615234375,1.399658203125q0,4.46044921875-0.21533203125,9.090087890625t-0.4921875,9.2900390625t-0.507568359375,9.32080078125t-0.230712890625,9.213134765625l0,2.1533203125q0,1.44580078125-0.815185546875,1.9072265625t-2.260986328125,0.46142578125q-1.26123046875,0-2.21484375-0.5537109375t-0.95361328125-1.81494140625z M193.53147949219,130.9462890625q0-0.89208984375,0.076904296875-1.87646484375t0.138427734375-1.845703125l0.1845703125-4.6142578125q0.3076171875-5.537109375,0.753662109375-10.8896484375t0.753662109375-10.828125q0.1845703125-3.0146484375,0.27685546875-5.921630859375t0.27685546875-5.921630859375q-0.123046875-0.24609375-0.123046875-0.33837890625q0-0.4306640625,0.322998046875-0.6767578125t0.753662109375-0.415283203125t0.907470703125-0.230712890625t0.722900390625-0.0615234375l0.70751953125,0q0.95361328125,0.123046875,1.38427734375,0.599853515625t0.5537109375,1.13818359375t0.0615234375,1.4150390625t-0.0615234375,1.399658203125q0,4.46044921875-0.21533203125,9.090087890625t-0.4921875,9.2900390625t-0.507568359375,9.32080078125t-0.230712890625,9.213134765625l0,2.1533203125q0,1.44580078125-0.815185546875,1.9072265625t-2.260986328125,0.46142578125q-1.26123046875,0-2.21484375-0.5537109375t-0.95361328125-1.81494140625z M219.44330566406,130.79248046875q0-0.1845703125,0.123046875-1.307373046875t0.322998046875-2.73779296875t0.446044921875-3.47607421875t0.4306640625-3.522216796875t0.322998046875-2.92236328125t0.138427734375-1.69189453125q-0.24609375-0.123046875-0.599853515625-0.353759765625t-0.353759765625-0.538330078125q0-0.4306640625,0.415283203125-0.692138671875t0.722900390625-0.384521484375q0.123046875-1.56884765625,0.3076171875-4.3681640625t0.569091796875-6.044677734375t1.07666015625-6.5830078125t1.830322265625-6.06005859375t2.73779296875-4.445068359375t3.9375-1.72265625t3.8759765625,1.4765625t2.507080078125,3.84521484375t1.4765625,5.26025390625t0.76904296875,5.75244140625t0.322998046875,5.3525390625t0.123046875,3.9990234375q0.0615234375,0.95361328125,0.46142578125,1.276611328125t0.876708984375,0.446044921875t0.861328125,0.27685546875t0.384521484375,0.76904296875q0,0.70751953125-0.861328125,0.984375t-1.353515625,0.33837890625q0.3076171875,3.84521484375,0.845947265625,7.5673828125t1.430419921875,7.505859375q0.123046875,0.70751953125,0.33837890625,1.430419921875t0.21533203125,1.399658203125q0,0.4921875-0.33837890625,0.815185546875t-0.876708984375,0.507568359375t-1.07666015625,0.24609375t-0.907470703125,0.0615234375q-1.38427734375,0-2.337890625-0.52294921875t-1.26123046875-1.99951171875q-0.83056640625-3.96826171875-1.63037109375-8.33642578125q-0.6767578125-3.78369140625-0.6767578125-7.35205078125q0-0.5537109375,0.03076171875-1.107421875q-2.583984375,0-5.19873046875,0.123046875t-5.01416015625,0.9228515625q-0.0615234375,0.83056640625-0.3076171875,3.1376953125t-0.5537109375,4.95263671875t-0.630615234375,5.060302734375t-0.384521484375,3.429931640625q-0.0615234375,0.4306640625-0.630615234375,0.815185546875t-1.23046875,0.415283203125t-1.1689453125-0.415283203125t-0.507568359375-1.584228515625z M225.19574707031,112.15087890625q2.3994140625-0.5537109375,4.814208984375-0.64599609375t4.875732421875-0.21533203125q-0.123046875-0.76904296875-0.0615234375-1.584228515625t0.0615234375-1.645751953125q0-1.81494140625-0.09228515625-4.21435546875t-0.27685546875-4.8603515625t-0.476806640625-4.844970703125t-0.661376953125-4.2451171875t-0.784423828125-2.968505859375t-0.907470703125-1.107421875q-0.95361328125,0.0615234375-1.799560546875,1.645751953125t-1.5380859375,4.02978515625t-1.26123046875,5.4755859375t-0.95361328125,5.921630859375t-0.630615234375,5.38330078125t-0.3076171875,3.8759765625z M250.47172851563,120.1796875l0-0.89208984375q0-1.107421875,0.0615234375-2.091796875q0.0615234375-1.38427734375,0.0615234375-2.2763671875q0-0.4921875,0.0615234375-1.122802734375t0.3076171875-0.999755859375q0.3076171875-0.3076171875,0.722900390625-0.630615234375t0.907470703125-0.322998046875q1.56884765625,0,2.4609375,0.353759765625t0.95361328125,1.461181640625l0.123046875,0.95361328125q0.5537109375-1.32275390625,1.4765625-3.276123046875t2.137939453125-3.72216796875t2.73779296875-3.0146484375t3.214599609375-1.245849609375q1.56884765625,0,2.583984375,1.4765625t1.614990234375,3.768310546875t0.845947265625,5.1064453125t0.33837890625,5.521728515625t0.123046875,4.937255859375t0.21533203125,3.368408203125q0.123046875,0.95361328125,0.415283203125,2.014892578125t0.292236328125,1.953369140625q0,0.24609375-0.353759765625,0.476806640625t-0.753662109375,0.384521484375t-0.815185546875,0.24609375t-0.599853515625,0.09228515625q-1.19970703125,0-1.707275390625-1.799560546875t-0.630615234375-4.506591796875t-0.123046875-5.860107421875t-0.21533203125-5.860107421875t-0.876708984375-4.506591796875t-2.107177734375-1.861083984375q-1.32275390625,0-2.73779296875,1.707275390625t-2.43017578125,4.537353515625q-0.984375,2.830078125-1.353515625,6.42919921875q-0.123046875,1.13818359375-0.123046875,2.2763671875q0,2.49169921875,0.52294921875,4.9833984375q0.0615234375,0.4306640625-0.353759765625,0.64599609375t-1.030517578125,0.33837890625t-1.245849609375,0.15380859375t-0.968994140625,0.03076171875q-1.19970703125,0-1.922607421875-0.845947265625t-1.122802734375-2.168701171875t-0.538330078125-2.968505859375t-0.169189453125-3.245361328125z M278.42397949219,120.02587890625q0-2.091796875,0.569091796875-4.02978515625t1.707275390625-3.460693359375t2.845458984375-2.43017578125t3.952880859375-0.907470703125q1.38427734375,0,3.060791015625,0.415283203125t3.153076171875,1.23046875t2.4609375,2.076416015625t0.984375,2.8916015625q0,0.76904296875-0.261474609375,1.1689453125t-1.061279296875,0.39990234375l-0.33837890625-0.0615234375q0.89208984375,2.3994140625,1.5380859375,4.921875t1.26123046875,5.044921875q0.24609375,0.4921875,0.369140625,0.876708984375t0.123046875,0.753662109375q0,0.4921875-0.27685546875,0.815185546875t-0.722900390625,0.476806640625t-0.9228515625,0.21533203125t-0.845947265625,0.0615234375q-1.32275390625,0-1.984130859375-0.46142578125t-0.95361328125-1.26123046875t-0.353759765625-1.799560546875t-0.24609375-2.014892578125q-0.369140625,1.19970703125-0.968994140625,2.337890625t-1.4150390625,2.045654296875t-1.922607421875,1.44580078125t-2.49169921875,0.538330078125q-2.0302734375,0-3.41455078125-1.1689453125t-2.230224609375-2.876220703125t-1.23046875-3.645263671875t-0.384521484375-3.59912109375z M282.79214355469,119.59521484375q0,1.13818359375,0.15380859375,2.3994140625t0.507568359375,2.49169921875t0.907470703125,2.322509765625t1.38427734375,1.922607421875q1.50732421875-1.63037109375,2.230224609375-3.96826171875t1.2919921875-4.506591796875t1.2919921875-3.72216796875t2.230224609375-1.553466796875q0.95361328125,0,1.599609375,0.33837890625q-0.3076171875-0.76904296875-1.01513671875-1.491943359375t-1.584228515625-1.32275390625t-1.81494140625-0.984375t-1.768798828125-0.384521484375q-0.24609375,0-0.569091796875,0.076904296875t-0.507568359375,0.015380859375q-1.26123046875,0.369140625-2.076416015625,1.276611328125t-1.32275390625,2.137939453125t-0.722900390625,2.5224609375t-0.21533203125,2.43017578125z M305.08423828125,130.9462890625q0-0.89208984375,0.076904296875-1.87646484375t0.138427734375-1.845703125l0.1845703125-4.6142578125q0.3076171875-5.537109375,0.753662109375-10.8896484375t0.753662109375-10.828125q0.1845703125-3.0146484375,0.27685546875-5.921630859375t0.27685546875-5.921630859375q-0.123046875-0.24609375-0.123046875-0.33837890625q0-0.4306640625,0.322998046875-0.6767578125t0.753662109375-0.415283203125t0.907470703125-0.230712890625t0.722900390625-0.0615234375l0.70751953125,0q0.95361328125,0.123046875,1.38427734375,0.599853515625t0.5537109375,1.13818359375t0.0615234375,1.4150390625t-0.0615234375,1.399658203125q0,4.46044921875-0.21533203125,9.090087890625t-0.4921875,9.2900390625t-0.507568359375,9.32080078125t-0.230712890625,9.213134765625l0,2.1533203125q0,1.44580078125-0.815185546875,1.9072265625t-2.260986328125,0.46142578125q-1.26123046875,0-2.21484375-0.5537109375t-0.95361328125-1.81494140625z M319.19371582031,113.166015625q0-0.89208984375,0.507568359375-1.1689453125t1.276611328125-0.27685546875q1.26123046875,0,1.922607421875,0.476806640625t0.661376953125,1.676513671875q0,1.44580078125,0.21533203125,3.614501953125t0.630615234375,4.21435546875t0.984375,3.522216796875t1.184326171875,1.4765625q1.13818359375,0,2.014892578125-1.75341796875t1.5380859375-4.306640625t1.13818359375-5.490966796875t0.661376953125-5.244873046875q0.123046875-1.26123046875,0.599853515625-1.830322265625t1.738037109375-0.569091796875q1.44580078125,0,2.107177734375,1.19970703125t0.845947265625,2.953125q0.15380859375,1.50732421875,0.15380859375,3.1376953125l0,0.52294921875l0,1.23046875q0,1.1689453125,0.03076171875,2.091796875l0.89208984375,18.85693359375l0.123046875,3.1376953125q0.0615234375,0.4306640625,0.09228515625,0.815185546875t0.03076171875,0.815185546875q0,1.75341796875-0.753662109375,2.260986328125t-2.445556640625,0.507568359375q-0.369140625,0-0.938232421875-0.0615234375t-1.107421875-0.24609375t-0.9228515625-0.507568359375t-0.384521484375-0.815185546875l0.123046875-0.3076171875q0.15380859375-1.845703125,0.15380859375-3.8759765625l0-0.64599609375q-0.03076171875-2.3994140625-0.15380859375-4.8603515625t-0.27685546875-4.921875t-0.15380859375-4.7373046875q-0.4306640625,0.95361328125-0.999755859375,1.96875t-1.32275390625,1.830322265625t-1.707275390625,1.353515625t-2.1533203125,0.538330078125q-1.75341796875,0-2.8916015625-0.9228515625t-1.768798828125-2.3994140625t-0.907470703125-3.306884765625t-0.369140625-3.66064453125t-0.123046875-3.491455078125t-0.24609375-2.79931640625z M343.57760742187,100.4921875q0-0.4306640625,0.9228515625-0.73828125t2.091796875-0.507568359375t2.260986328125-0.292236328125t1.491943359375-0.15380859375q0-0.83056640625,0.0615234375-1.676513671875t0.33837890625-1.50732421875t0.876708984375-1.061279296875t1.676513671875-0.39990234375q0.89208984375,0,1.353515625,0.21533203125t0.984375,0.89208984375q0.123046875,0.369140625,0.123046875,0.70751953125l0,1.030517578125t-0.0615234375,1.061279296875q1.13818359375-0.123046875,2.260986328125-0.292236328125t2.260986328125-0.169189453125q0.83056640625,0,1.13818359375,0.03076171875t0.615234375,0.73828125q0.24609375,0.70751953125-0.599853515625,1.07666015625t-2.0302734375,0.5537109375t-2.353271484375,0.27685546875t-1.4150390625,0.09228515625q-0.369140625,5.291015625-0.753662109375,10.48974609375t-0.384521484375,10.55126953125q0,2.3994140625,0.15380859375,4.95263671875t0.861328125,4.82958984375q0.1845703125,0.70751953125,0.615234375,1.32275390625t0.4306640625,1.32275390625q0,0.4306640625-0.33837890625,0.6767578125t-0.815185546875,0.415283203125t-0.95361328125,0.199951171875t-0.784423828125,0.03076171875q-1.93798828125,0-2.953125-1.44580078125t-1.461181640625-3.460693359375t-0.476806640625-4.137451171875t-0.03076171875-3.4453125q0-2.70703125,0.107666015625-5.537109375t0.261474609375-5.5986328125t0.4306640625-5.4140625t0.64599609375-4.921875q-1.07666015625,0.123046875-2.107177734375,0.27685546875t-2.107177734375,0.15380859375q-0.24609375,0-0.661376953125-0.03076171875t-0.784423828125-0.15380859375t-0.630615234375-0.33837890625t-0.261474609375-0.615234375z M367.10017089844,119.28759765625q0-2.830078125,0.661376953125-5.552490234375t1.122802734375-5.429443359375q0.123046875-0.70751953125,0.968994140625-0.876708984375t1.430419921875-0.169189453125q1.01513671875,0,1.63037109375,0.3076171875q0.24609375,0.123046875,0.46142578125,0.27685546875t0.21533203125,0.39990234375q0,2.6455078125-0.630615234375,5.16796875t-0.630615234375,5.3525390625q0,0.95361328125,0.138427734375,1.799560546875t0.261474609375,1.676513671875l0.1845703125,0.89208984375q0,0.24609375,0.03076171875,0.4306640625t0.09228515625,0.4306640625q0,0.5537109375-0.784423828125,0.753662109375t-1.368896484375,0.199951171875q-0.89208984375,0-1.645751953125-0.353759765625t-1.184326171875-1.215087890625l-0.4306640625-0.89208984375q-0.369140625-0.70751953125-0.369140625-1.584228515625t-0.15380859375-1.614990234375z M369.06892089844,100.76904296875l0-0.58447265625q0-1.44580078125,0.722900390625-2.583984375t2.168701171875-1.13818359375q0.1845703125,0,0.353759765625,0.03076171875t0.353759765625,0.03076171875q0.369140625,0.0615234375,0.968994140625,0.292236328125t0.599853515625,0.722900390625l0,0.0615234375q-0.123046875,0.24609375-0.15380859375,0.507568359375t-0.15380859375,0.446044921875l0.0615234375-0.0615234375q-0.369140625,0.95361328125-0.599853515625,1.5380859375t-0.507568359375,0.938232421875t-0.692138671875,0.507568359375t-1.184326171875,0.15380859375q-0.123046875,0-0.4306640625-0.03076171875t-0.661376953125-0.123046875t-0.599853515625-0.24609375t-0.24609375-0.46142578125z M380.532890625,119.41064453125q0-2.21484375,0.569091796875-4.445068359375t1.768798828125-3.9990234375t3.060791015625-2.876220703125t4.383544921875-1.107421875q1.07666015625,0,2.36865234375,0.261474609375t2.384033203125,0.83056640625t1.845703125,1.4765625t0.753662109375,2.230224609375q0,0.83056640625-0.4306640625,1.107421875t-1.13818359375,0.27685546875l-0.21533203125-0.3076171875t-0.599853515625-0.784423828125t-0.815185546875-1.01513671875t-0.83056640625-0.907470703125q-1.26123046875-1.26123046875-2.36865234375-1.353515625l-0.24609375,0q-0.9228515625,0-1.72265625,0.5537109375q-0.89208984375,0.6767578125-1.584228515625,1.9072265625t-1.153564453125,2.61474609375t-0.722900390625,2.79931640625t-0.261474609375,2.337890625q0,1.26123046875,0.292236328125,2.876220703125t0.984375,3.060791015625t1.75341796875,2.43017578125t2.722412109375,0.984375q1.50732421875,0,2.73779296875-0.73828125t2.353271484375-1.645751953125t2.199462890625-1.63037109375t2.21484375-0.722900390625q0.4921875,0,0.999755859375,0.123046875t0.507568359375,0.64599609375l0,0.1845703125q-0.5537109375,1.44580078125-1.87646484375,2.55322265625t-2.968505859375,1.922607421875t-3.41455078125,1.215087890625t-3.153076171875,0.39990234375q-2.583984375,0-4.537353515625-0.845947265625t-3.245361328125-2.322509765625t-1.953369140625-3.552978515625t-0.661376953125-4.537353515625z M407.37771972656,112.08935546875q0-1.26123046875,0.73828125-2.168701171875t1.799560546875-1.4765625t2.322509765625-0.845947265625t2.337890625-0.27685546875q0.83056640625,0,2.21484375,0.24609375t2.70703125,0.73828125t2.291748046875,1.2919921875t0.968994140625,1.87646484375q0,0.4921875-0.369140625,0.876708984375t-0.76904296875,0.384521484375q-0.83056640625,0-1.50732421875-0.538330078125t-1.399658203125-1.13818359375t-1.584228515625-1.13818359375t-1.93798828125-0.538330078125t-1.953369140625,0.692138671875t-0.876708984375,1.830322265625q0,1.87646484375,1.32275390625,3.676025390625t2.906982421875,3.78369140625t2.906982421875,4.168212890625t1.32275390625,4.82958984375q0,1.13818359375-0.476806640625,1.922607421875t-1.26123046875,1.276611328125t-1.768798828125,0.753662109375t-1.9072265625,0.261474609375q-1.01513671875,0-2.36865234375-0.476806640625t-2.55322265625-1.26123046875t-2.014892578125-1.830322265625t-0.815185546875-2.18408203125q0-0.5537109375,0.784423828125-0.70751953125t1.153564453125-0.15380859375q0.1845703125,0,0.569091796875,0.123046875t0.753662109375,0.27685546875t0.661376953125,0.33837890625t0.230712890625,0.39990234375q0.3076171875,0.369140625,0.938232421875,1.092041015625t1.26123046875,1.1689453125t1.107421875,0.322998046875t0.476806640625-1.38427734375q0-2.3994140625-1.2919921875-4.414306640625t-2.814697265625-3.9375t-2.814697265625-3.814453125t-1.2919921875-4.045166015625z"/><path fill="#" d=""/></svg>
